<svg xmlns="http://www.w3.org/2000/svg" width="800" height="450"><path d="M-47,-117L43,-109L315,-114Z" fill="#22c55e" stroke="#50b779" stroke-width="1.51"/><path d="M249,558L4,564L373,561Z" fill="#297644" stroke="#297644" stroke-width="1.51"/><path d="M315,-114L408,-102L588,-94Z" fill="#44a268" stroke="#44a268" stroke-width="1.51"/><path d="M740,542L655,551L811,550Z" fill="#195a2d" stroke="#195a2d" stroke-width="1.51"/><path d="M826,122L829,170L872,93Z" fill="#2a7745" stroke="#2a7745" stroke-width="1.51"/><path d="M588,-94L659,-92L874,-101Z" fill="#3a925b" stroke="#3a925b" stroke-width="1.51"/><path d="M315,-114L588,-94L874,-101Z" fill="#3f9961" stroke="#3f9961" stroke-width="1.51"/><path d="M659,-92L765,-76L874,-101Z" fill="#388e58" stroke="#388e58" stroke-width="1.51"/><path d="M872,93L829,170L880,216Z" fill="#287342" stroke="#287342" stroke-width="1.51"/><path d="M847,343L884,389L888,309Z" fill="#1e6335" stroke="#1e6335" stroke-width="1.51"/><path d="M880,216L869,276L888,309Z" fill="#22693a" stroke="#22693a" stroke-width="1.51"/><path d="M872,93L880,216L894,77Z" fill="#297543" stroke="#297543" stroke-width="1.51"/><path d="M880,216L888,309L894,77Z" fill="#256e3e" stroke="#256e3e" stroke-width="1.51"/><path d="M799,-19L807,28L896,-43Z" fill="#32834f" stroke="#32834f" stroke-width="1.51"/><path d="M807,28L894,77L896,-43Z" fill="#2f7e4b" stroke="#2f7e4b" stroke-width="1.51"/><path d="M811,550L655,551L896,566Z" fill="#17572b" stroke="#17572b" stroke-width="1.51"/><path d="M655,551L523,561L896,566Z" fill="#1a5b2f" stroke="#1a5b2f" stroke-width="1.51"/><path d="M896,-43L894,77L905,477Z" fill="#26703f" stroke="#26703f" stroke-width="1.51"/><path d="M884,389L825,450L905,477Z" fill="#1a5c2f" stroke="#1a5c2f" stroke-width="1.51"/><path d="M811,550L896,566L905,477Z" fill="#155429" stroke="#155429" stroke-width="1.51"/><path d="M825,450L811,550L905,477Z" fill="#18582d" stroke="#18582d" stroke-width="1.51"/><path d="M888,309L884,389L905,477Z" fill="#1b5e31" stroke="#1b5e31" stroke-width="1.51"/><path d="M894,77L888,309L905,477Z" fill="#216738" stroke="#216738" stroke-width="1.51"/><path d="M832,387L825,450L884,389Z" fill="#1c5f32" stroke="#1c5f32" stroke-width="1.51"/><path d="M807,28L872,93L894,77Z" fill="#2d7b48" stroke="#2d7b48" stroke-width="1.51"/><path d="M822,-67L799,-19L896,-43Z" fill="#338551" stroke="#338551" stroke-width="1.51"/><path d="M874,-101L822,-67L896,-43Z" fill="#338652" stroke="#338652" stroke-width="1.51"/><path d="M830,232L869,276L880,216Z" fill="#246d3d" stroke="#246d3d" stroke-width="1.51"/><path d="M765,-76L822,-67L874,-101Z" fill="#358a54" stroke="#358a54" stroke-width="1.51"/><path d="M847,343L832,387L884,389Z" fill="#1d6234" stroke="#1d6234" stroke-width="1.51"/><path d="M869,276L847,343L888,309Z" fill="#216638" stroke="#216638" stroke-width="1.51"/><path d="M408,-102L457,-91L588,-94Z" fill="#429f66" stroke="#429f66" stroke-width="1.51"/><path d="M829,170L830,232L880,216Z" fill="#26703f" stroke="#26703f" stroke-width="1.51"/><path d="M807,28L826,122L872,93Z" fill="#2d7b49" stroke="#2d7b49" stroke-width="1.51"/><path d="M773,254L847,343L869,276Z" fill="#236a3b" stroke="#236a3b" stroke-width="1.51"/><path d="M773,254L772,338L847,343Z" fill="#226a3b" stroke="#226a3b" stroke-width="1.51"/><path d="M830,232L773,254L869,276Z" fill="#246e3e" stroke="#246e3e" stroke-width="1.51"/><path d="M772,338L832,387L847,343Z" fill="#206537" stroke="#206537" stroke-width="1.51"/><path d="M619,546L523,561L655,551Z" fill="#1d6133" stroke="#1d6133" stroke-width="1.51"/><path d="M736,28L769,142L807,28Z" fill="#30804c" stroke="#30804c" stroke-width="1.51"/><path d="M748,442L740,542L811,550Z" fill="#1a5b2f" stroke="#1a5b2f" stroke-width="1.51"/><path d="M748,442L811,550L825,450Z" fill="#1b5c2f" stroke="#1b5c2f" stroke-width="1.51"/><path d="M749,406L748,442L825,450Z" fill="#1d6133" stroke="#1d6133" stroke-width="1.51"/><path d="M807,28L769,142L826,122Z" fill="#2d7c49" stroke="#2d7c49" stroke-width="1.51"/><path d="M729,174L773,254L829,170Z" fill="#297543" stroke="#297543" stroke-width="1.51"/><path d="M769,142L729,174L829,170Z" fill="#2b7746" stroke="#2b7746" stroke-width="1.51"/><path d="M826,122L769,142L829,170Z" fill="#2b7745" stroke="#2b7745" stroke-width="1.51"/><path d="M829,170L773,254L830,232Z" fill="#277141" stroke="#277141" stroke-width="1.51"/><path d="M749,406L825,450L832,387Z" fill="#1d6133" stroke="#1d6133" stroke-width="1.51"/><path d="M772,338L749,406L832,387Z" fill="#206537" stroke="#206537" stroke-width="1.51"/><path d="M765,-76L799,-19L822,-67Z" fill="#358954" stroke="#358954" stroke-width="1.51"/><path d="M799,-19L746,-6L807,28Z" fill="#338550" stroke="#338550" stroke-width="1.51"/><path d="M736,28L692,71L769,142Z" fill="#30814d" stroke="#30814d" stroke-width="1.51"/><path d="M746,-6L736,28L807,28Z" fill="#338451" stroke="#338451" stroke-width="1.51"/><path d="M765,-76L746,-6L799,-19Z" fill="#358853" stroke="#358853" stroke-width="1.51"/><path d="M694,453L740,542L748,442Z" fill="#1c6032" stroke="#1c6032" stroke-width="1.51"/><path d="M692,71L673,101L769,142Z" fill="#30804c" stroke="#30804c" stroke-width="1.51"/><path d="M657,310L749,406L772,338Z" fill="#236a3b" stroke="#236a3b" stroke-width="1.51"/><path d="M683,246L657,310L772,338Z" fill="#267040" stroke="#267040" stroke-width="1.51"/><path d="M729,174L692,213L773,254Z" fill="#297644" stroke="#297644" stroke-width="1.51"/><path d="M683,246L772,338L773,254Z" fill="#266f3f" stroke="#266f3f" stroke-width="1.51"/><path d="M692,213L683,246L773,254Z" fill="#297443" stroke="#297443" stroke-width="1.51"/><path d="M673,101L729,174L769,142Z" fill="#2e7d4a" stroke="#2e7d4a" stroke-width="1.51"/><path d="M675,-19L746,-6L765,-76Z" fill="#368b55" stroke="#368b55" stroke-width="1.51"/><path d="M657,310L693,426L749,406Z" fill="#23693a" stroke="#23693a" stroke-width="1.51"/><path d="M659,-92L675,-19L765,-76Z" fill="#398f59" stroke="#398f59" stroke-width="1.51"/><path d="M694,453L655,551L740,542Z" fill="#1c5e32" stroke="#1c5e32" stroke-width="1.51"/><path d="M693,426L748,442L749,406Z" fill="#1f6436" stroke="#1f6436" stroke-width="1.51"/><path d="M693,426L694,453L748,442Z" fill="#1f6435" stroke="#1f6435" stroke-width="1.51"/><path d="M675,-19L736,28L746,-6Z" fill="#358954" stroke="#358954" stroke-width="1.51"/><path d="M675,-19L692,71L736,28Z" fill="#348752" stroke="#348752" stroke-width="1.51"/><path d="M673,101L692,213L729,174Z" fill="#2d7c4a" stroke="#2d7c4a" stroke-width="1.51"/><path d="M117,548L4,564L249,558Z" fill="#2d7b48" stroke="#2d7b48" stroke-width="1.51"/><path d="M457,-91L525,-81L588,-94Z" fill="#409c63" stroke="#409c63" stroke-width="1.51"/><path d="M590,491L619,546L655,551Z" fill="#1d6234" stroke="#1d6234" stroke-width="1.51"/><path d="M673,101L623,110L692,213Z" fill="#30804d" stroke="#30804d" stroke-width="1.51"/><path d="M623,110L598,193L692,213Z" fill="#2f7f4b" stroke="#2f7f4b" stroke-width="1.51"/><path d="M675,-19L608,28L692,71Z" fill="#368a54" stroke="#368a54" stroke-width="1.51"/><path d="M657,310L606,336L693,426Z" fill="#256e3e" stroke="#256e3e" stroke-width="1.51"/><path d="M606,336L597,417L693,426Z" fill="#246c3c" stroke="#246c3c" stroke-width="1.51"/><path d="M590,491L655,551L694,453Z" fill="#1e6335" stroke="#1e6335" stroke-width="1.51"/><path d="M693,426L597,417L694,453Z" fill="#216738" stroke="#216738" stroke-width="1.51"/><path d="M597,417L590,491L694,453Z" fill="#216739" stroke="#216739" stroke-width="1.51"/><path d="M598,240L683,246L692,213Z" fill="#2b7846" stroke="#2b7846" stroke-width="1.51"/><path d="M598,193L598,240L692,213Z" fill="#2d7b49" stroke="#2d7b49" stroke-width="1.51"/><path d="M608,28L673,101L692,71Z" fill="#348651" stroke="#348651" stroke-width="1.51"/><path d="M608,28L623,110L673,101Z" fill="#338752" stroke="#338752" stroke-width="1.51"/><path d="M598,240L657,310L683,246Z" fill="#2a7644" stroke="#2a7644" stroke-width="1.51"/><path d="M588,-94L590,-4L659,-92Z" fill="#3c955d" stroke="#3c955d" stroke-width="1.51"/><path d="M659,-92L590,-4L675,-19Z" fill="#3a905a" stroke="#3a905a" stroke-width="1.51"/><path d="M590,-4L608,28L675,-19Z" fill="#388e58" stroke="#388e58" stroke-width="1.51"/><path d="M598,240L606,336L657,310Z" fill="#297543" stroke="#297543" stroke-width="1.51"/><path d="M566,234L561,340L598,240Z" fill="#2c7a47" stroke="#2c7a47" stroke-width="1.51"/><path d="M598,240L561,340L606,336Z" fill="#2a7644" stroke="#2a7644" stroke-width="1.51"/><path d="M561,340L597,417L606,336Z" fill="#277140" stroke="#277140" stroke-width="1.51"/><path d="M536,130L554,162L623,110Z" fill="#338551" stroke="#338551" stroke-width="1.51"/><path d="M608,28L539,63L623,110Z" fill="#368a55" stroke="#368a55" stroke-width="1.51"/><path d="M539,63L536,130L623,110Z" fill="#358953" stroke="#358953" stroke-width="1.51"/><path d="M554,162L598,193L623,110Z" fill="#31834f" stroke="#31834f" stroke-width="1.51"/><path d="M560,420L590,491L597,417Z" fill="#236b3b" stroke="#236b3b" stroke-width="1.51"/><path d="M590,491L559,495L619,546Z" fill="#206536" stroke="#206536" stroke-width="1.51"/><path d="M559,495L523,561L619,546Z" fill="#1f6436" stroke="#1f6436" stroke-width="1.51"/><path d="M525,-81L532,-12L588,-94Z" fill="#3e9860" stroke="#3e9860" stroke-width="1.51"/><path d="M588,-94L532,-12L590,-4Z" fill="#3c945d" stroke="#3c945d" stroke-width="1.51"/><path d="M560,420L559,495L590,491Z" fill="#22693a" stroke="#22693a" stroke-width="1.51"/><path d="M561,340L560,420L597,417Z" fill="#266f3f" stroke="#266f3f" stroke-width="1.51"/><path d="M566,234L598,240L598,193Z" fill="#2e7d4a" stroke="#2e7d4a" stroke-width="1.51"/><path d="M590,-4L539,63L608,28Z" fill="#388e58" stroke="#388e58" stroke-width="1.51"/><path d="M532,-12L539,63L590,-4Z" fill="#3a915b" stroke="#3a915b" stroke-width="1.51"/><path d="M554,162L566,234L598,193Z" fill="#30804d" stroke="#30804d" stroke-width="1.51"/><path d="M457,304L561,340L566,234Z" fill="#2c7a48" stroke="#2c7a48" stroke-width="1.51"/><path d="M477,407L454,493L559,495Z" fill="#256e3e" stroke="#256e3e" stroke-width="1.51"/><path d="M477,407L559,495L560,420Z" fill="#256e3d" stroke="#256e3d" stroke-width="1.51"/><path d="M477,407L560,420L561,340Z" fill="#277241" stroke="#277241" stroke-width="1.51"/><path d="M554,162L471,182L566,234Z" fill="#31834f" stroke="#31834f" stroke-width="1.51"/><path d="M471,182L458,258L566,234Z" fill="#31824e" stroke="#31824e" stroke-width="1.51"/><path d="M458,258L457,304L566,234Z" fill="#2f7f4b" stroke="#2f7f4b" stroke-width="1.51"/><path d="M457,304L477,407L561,340Z" fill="#2b7745" stroke="#2b7745" stroke-width="1.51"/><path d="M454,493L523,561L559,495Z" fill="#226939" stroke="#226939" stroke-width="1.51"/><path d="M536,130L471,182L554,162Z" fill="#338652" stroke="#338652" stroke-width="1.51"/><path d="M454,493L459,561L523,561Z" fill="#22693a" stroke="#22693a" stroke-width="1.51"/><path d="M525,-81L457,-91L532,-12Z" fill="#3f9a62" stroke="#3f9a62" stroke-width="1.51"/><path d="M457,-91L446,3L532,-12Z" fill="#3f9a61" stroke="#3f9a61" stroke-width="1.51"/><path d="M446,3L450,55L532,-12Z" fill="#3c955e" stroke="#3c955e" stroke-width="1.51"/><path d="M532,-12L450,55L539,63Z" fill="#3a925b" stroke="#3a925b" stroke-width="1.51"/><path d="M448,124L536,130L539,63Z" fill="#378b56" stroke="#378b56" stroke-width="1.51"/><path d="M450,55L448,124L539,63Z" fill="#399059" stroke="#399059" stroke-width="1.51"/><path d="M448,124L471,182L536,130Z" fill="#358954" stroke="#358954" stroke-width="1.51"/><path d="M386,-15L446,3L457,-91Z" fill="#409c64" stroke="#409c64" stroke-width="1.51"/><path d="M396,338L421,401L457,304Z" fill="#2d7c49" stroke="#2d7c49" stroke-width="1.51"/><path d="M375,205L458,258L471,182Z" fill="#348651" stroke="#348651" stroke-width="1.51"/><path d="M457,304L421,401L477,407Z" fill="#2b7846" stroke="#2b7846" stroke-width="1.51"/><path d="M421,401L454,493L477,407Z" fill="#287342" stroke="#287342" stroke-width="1.51"/><path d="M421,401L391,495L454,493Z" fill="#277241" stroke="#277241" stroke-width="1.51"/><path d="M408,-102L386,-15L457,-91Z" fill="#43a167" stroke="#43a167" stroke-width="1.51"/><path d="M454,493L391,495L459,561Z" fill="#246d3d" stroke="#246d3d" stroke-width="1.51"/><path d="M448,124L375,205L471,182Z" fill="#368a55" stroke="#368a55" stroke-width="1.51"/><path d="M398,113L375,205L448,124Z" fill="#388e58" stroke="#388e58" stroke-width="1.51"/><path d="M398,113L448,124L450,55Z" fill="#39915a" stroke="#39915a" stroke-width="1.51"/><path d="M384,75L398,113L450,55Z" fill="#3b935c" stroke="#3b935c" stroke-width="1.51"/><path d="M404,282L457,304L458,258Z" fill="#30804d" stroke="#30804d" stroke-width="1.51"/><path d="M375,205L404,282L458,258Z" fill="#338550" stroke="#338550" stroke-width="1.51"/><path d="M391,495L373,561L459,561Z" fill="#246d3d" stroke="#246d3d" stroke-width="1.51"/><path d="M404,282L396,338L457,304Z" fill="#2f7f4c" stroke="#2f7f4c" stroke-width="1.51"/><path d="M386,-15L384,75L446,3Z" fill="#3e9961" stroke="#3e9961" stroke-width="1.51"/><path d="M446,3L384,75L450,55Z" fill="#3c965e" stroke="#3c965e" stroke-width="1.51"/><path d="M43,-109L170,-71L315,-114Z" fill="#4db175" stroke="#4db175" stroke-width="1.51"/><path d="M320,469L391,495L421,401Z" fill="#297544" stroke="#297544" stroke-width="1.51"/><path d="M321,396L320,469L421,401Z" fill="#2b7947" stroke="#2b7947" stroke-width="1.51"/><path d="M396,338L321,396L421,401Z" fill="#2d7c49" stroke="#2d7c49" stroke-width="1.51"/><path d="M341,65L384,75L386,-15Z" fill="#3e9961" stroke="#3e9961" stroke-width="1.51"/><path d="M332,-2L341,65L386,-15Z" fill="#409c64" stroke="#409c64" stroke-width="1.51"/><path d="M317,129L375,205L398,113Z" fill="#399059" stroke="#399059" stroke-width="1.51"/><path d="M375,205L307,233L404,282Z" fill="#358853" stroke="#358853" stroke-width="1.51"/><path d="M315,-114L386,-15L408,-102Z" fill="#45a46a" stroke="#45a46a" stroke-width="1.51"/><path d="M315,-114L332,-2L386,-15Z" fill="#44a269" stroke="#44a269" stroke-width="1.51"/><path d="M336,513L373,561L391,495Z" fill="#267040" stroke="#267040" stroke-width="1.51"/><path d="M307,233L284,313L404,282Z" fill="#348752" stroke="#348752" stroke-width="1.51"/><path d="M305,344L396,338L404,282Z" fill="#30814d" stroke="#30814d" stroke-width="1.51"/><path d="M284,313L305,344L404,282Z" fill="#32844f" stroke="#32844f" stroke-width="1.51"/><path d="M316,216L307,233L375,205Z" fill="#378c56" stroke="#378c56" stroke-width="1.51"/><path d="M305,344L321,396L396,338Z" fill="#2f7f4c" stroke="#2f7f4c" stroke-width="1.51"/><path d="M384,75L317,129L398,113Z" fill="#3c935d" stroke="#3c935d" stroke-width="1.51"/><path d="M341,65L317,129L384,75Z" fill="#3d965f" stroke="#3d965f" stroke-width="1.51"/><path d="M315,-114L281,-76L332,-2Z" fill="#46a66c" stroke="#46a66c" stroke-width="1.51"/><path d="M320,469L336,513L391,495Z" fill="#287443" stroke="#287443" stroke-width="1.51"/><path d="M317,129L316,216L375,205Z" fill="#398f59" stroke="#398f59" stroke-width="1.51"/><path d="M336,513L249,558L373,561Z" fill="#277140" stroke="#277140" stroke-width="1.51"/><path d="M273,269L284,313L307,233Z" fill="#368a54" stroke="#368a54" stroke-width="1.51"/><path d="M278,212L316,216L317,129Z" fill="#39905a" stroke="#39905a" stroke-width="1.51"/><path d="M269,426L320,469L321,396Z" fill="#2d7c49" stroke="#2d7c49" stroke-width="1.51"/><path d="M255,-1L246,48L332,-2Z" fill="#43a167" stroke="#43a167" stroke-width="1.51"/><path d="M332,-2L246,48L341,65Z" fill="#419d65" stroke="#419d65" stroke-width="1.51"/><path d="M246,48L317,129L341,65Z" fill="#3f9a61" stroke="#3f9a61" stroke-width="1.51"/><path d="M281,-76L255,-1L332,-2Z" fill="#45a46a" stroke="#45a46a" stroke-width="1.51"/><path d="M320,469L268,473L336,513Z" fill="#2a7645" stroke="#2a7645" stroke-width="1.51"/><path d="M268,473L249,558L336,513Z" fill="#297644" stroke="#297644" stroke-width="1.51"/><path d="M247,141L278,212L317,129Z" fill="#3c945d" stroke="#3c945d" stroke-width="1.51"/><path d="M170,-71L281,-76L315,-114Z" fill="#49ab70" stroke="#49ab70" stroke-width="1.51"/><path d="M246,48L247,141L317,129Z" fill="#3f9961" stroke="#3f9961" stroke-width="1.51"/><path d="M269,426L268,473L320,469Z" fill="#2c7b48" stroke="#2c7b48" stroke-width="1.51"/><path d="M305,344L269,426L321,396Z" fill="#2f7f4c" stroke="#2f7f4c" stroke-width="1.51"/><path d="M278,212L307,233L316,216Z" fill="#388d57" stroke="#388d57" stroke-width="1.51"/><path d="M208,351L269,426L305,344Z" fill="#31834f" stroke="#31834f" stroke-width="1.51"/><path d="M278,212L273,269L307,233Z" fill="#378d57" stroke="#378d57" stroke-width="1.51"/><path d="M284,313L208,351L305,344Z" fill="#338651" stroke="#338651" stroke-width="1.51"/><path d="M208,351L206,426L269,426Z" fill="#31834f" stroke="#31834f" stroke-width="1.51"/><path d="M247,141L212,163L278,212Z" fill="#3c955d" stroke="#3c955d" stroke-width="1.51"/><path d="M180,242L273,269L278,212Z" fill="#398f59" stroke="#398f59" stroke-width="1.51"/><path d="M186,-47L255,-1L281,-76Z" fill="#47a86d" stroke="#47a86d" stroke-width="1.51"/><path d="M273,269L208,351L284,313Z" fill="#358853" stroke="#358853" stroke-width="1.51"/><path d="M170,-71L186,-47L281,-76Z" fill="#4aac71" stroke="#4aac71" stroke-width="1.51"/><path d="M178,469L249,558L268,473Z" fill="#2c7a48" stroke="#2c7a48" stroke-width="1.51"/><path d="M212,163L180,242L278,212Z" fill="#3b935c" stroke="#3b935c" stroke-width="1.51"/><path d="M178,469L163,519L249,558Z" fill="#2c7a48" stroke="#2c7a48" stroke-width="1.51"/><path d="M206,426L268,473L269,426Z" fill="#2e7d4b" stroke="#2e7d4b" stroke-width="1.51"/><path d="M180,242L208,351L273,269Z" fill="#378c57" stroke="#378c57" stroke-width="1.51"/><path d="M246,48L169,127L247,141Z" fill="#419c64" stroke="#419c64" stroke-width="1.51"/><path d="M206,426L178,469L268,473Z" fill="#2f7e4b" stroke="#2f7e4b" stroke-width="1.51"/><path d="M163,519L117,548L249,558Z" fill="#2c7947" stroke="#2c7947" stroke-width="1.51"/><path d="M180,22L246,48L255,-1Z" fill="#44a369" stroke="#44a369" stroke-width="1.51"/><path d="M186,-47L180,22L255,-1Z" fill="#47a76d" stroke="#47a76d" stroke-width="1.51"/><path d="M43,-109L93,-73L170,-71Z" fill="#4fb477" stroke="#4fb477" stroke-width="1.51"/><path d="M180,22L169,127L246,48Z" fill="#44a168" stroke="#44a168" stroke-width="1.51"/><path d="M169,127L212,163L247,141Z" fill="#3f9a61" stroke="#3f9a61" stroke-width="1.51"/><path d="M107,279L124,334L180,242Z" fill="#3a915b" stroke="#3a915b" stroke-width="1.51"/><path d="M169,127L92,176L180,242Z" fill="#3f9a62" stroke="#3f9a62" stroke-width="1.51"/><path d="M180,242L124,334L208,351Z" fill="#388d58" stroke="#388d58" stroke-width="1.51"/><path d="M136,381L206,426L208,351Z" fill="#338652" stroke="#338652" stroke-width="1.51"/><path d="M169,127L180,242L212,163Z" fill="#3e9860" stroke="#3e9860" stroke-width="1.51"/><path d="M124,334L136,381L208,351Z" fill="#368b55" stroke="#368b55" stroke-width="1.51"/><path d="M125,129L92,176L169,127Z" fill="#429e65" stroke="#429e65" stroke-width="1.51"/><path d="M136,381L178,469L206,426Z" fill="#32834f" stroke="#32834f" stroke-width="1.51"/><path d="M93,41L125,129L169,127Z" fill="#44a269" stroke="#44a269" stroke-width="1.51"/><path d="M136,381L108,468L178,469Z" fill="#328450" stroke="#328450" stroke-width="1.51"/><path d="M93,41L169,127L180,22Z" fill="#46a46a" stroke="#46a46a" stroke-width="1.51"/><path d="M124,-37L180,22L186,-47Z" fill="#49ab6f" stroke="#49ab6f" stroke-width="1.51"/><path d="M170,-71L124,-37L186,-47Z" fill="#4bae72" stroke="#4bae72" stroke-width="1.51"/><path d="M108,468L163,519L178,469Z" fill="#30804c" stroke="#30804c" stroke-width="1.51"/><path d="M124,-37L93,41L180,22Z" fill="#49aa6f" stroke="#49aa6f" stroke-width="1.51"/><path d="M92,176L107,279L180,242Z" fill="#3d975f" stroke="#3d975f" stroke-width="1.51"/><path d="M93,-73L124,-37L170,-71Z" fill="#4cb074" stroke="#4cb074" stroke-width="1.51"/><path d="M108,468L117,548L163,519Z" fill="#2f7e4b" stroke="#2f7e4b" stroke-width="1.51"/><path d="M45,194L63,278L92,176Z" fill="#409c63" stroke="#409c63" stroke-width="1.51"/><path d="M92,176L63,278L107,279Z" fill="#3e9860" stroke="#3e9860" stroke-width="1.51"/><path d="M55,343L66,399L124,334Z" fill="#388e58" stroke="#388e58" stroke-width="1.51"/><path d="M93,41L49,97L125,129Z" fill="#46a56b" stroke="#46a56b" stroke-width="1.51"/><path d="M124,334L66,399L136,381Z" fill="#368c56" stroke="#368c56" stroke-width="1.51"/><path d="M66,399L108,468L136,381Z" fill="#358853" stroke="#358853" stroke-width="1.51"/><path d="M63,278L55,343L107,279Z" fill="#3c945d" stroke="#3c945d" stroke-width="1.51"/><path d="M108,468L35,533L117,548Z" fill="#30804d" stroke="#30804d" stroke-width="1.51"/><path d="M35,533L4,564L117,548Z" fill="#307f4c" stroke="#307f4c" stroke-width="1.51"/><path d="M107,279L55,343L124,334Z" fill="#3a915b" stroke="#3a915b" stroke-width="1.51"/><path d="M24,-29L93,41L124,-37Z" fill="#4baf72" stroke="#4baf72" stroke-width="1.51"/><path d="M93,-73L24,-29L124,-37Z" fill="#4db275" stroke="#4db275" stroke-width="1.51"/><path d="M49,97L92,176L125,129Z" fill="#44a168" stroke="#44a168" stroke-width="1.51"/><path d="M50,58L49,97L93,41Z" fill="#48a96e" stroke="#48a96e" stroke-width="1.51"/><path d="M26,496L35,533L108,468Z" fill="#328450" stroke="#328450" stroke-width="1.51"/><path d="M66,399L26,496L108,468Z" fill="#348753" stroke="#348753" stroke-width="1.51"/><path d="M49,97L45,194L92,176Z" fill="#43a168" stroke="#43a168" stroke-width="1.51"/><path d="M43,-109L24,-29L93,-73Z" fill="#4fb679" stroke="#4fb679" stroke-width="1.51"/><path d="M24,-29L50,58L93,41Z" fill="#4aad72" stroke="#4aad72" stroke-width="1.51"/><path d="M-8,99L45,194L49,97Z" fill="#46a56b" stroke="#46a56b" stroke-width="1.51"/><path d="M24,-29L-24,43L50,58Z" fill="#4cb074" stroke="#4cb074" stroke-width="1.51"/><path d="M6,267L55,343L63,278Z" fill="#3d965f" stroke="#3d965f" stroke-width="1.51"/><path d="M45,194L6,267L63,278Z" fill="#3f9b63" stroke="#3f9b63" stroke-width="1.51"/><path d="M55,343L-8,418L66,399Z" fill="#388e58" stroke="#388e58" stroke-width="1.51"/><path d="M-8,418L26,496L66,399Z" fill="#368a56" stroke="#368a56" stroke-width="1.51"/><path d="M-8,99L-42,174L45,194Z" fill="#45a56b" stroke="#45a56b" stroke-width="1.51"/><path d="M-31,-42L24,-29L43,-109Z" fill="#50b77a" stroke="#50b77a" stroke-width="1.51"/><path d="M-8,99L49,97L50,58Z" fill="#48a96e" stroke="#48a96e" stroke-width="1.51"/><path d="M6,267L-45,326L55,343Z" fill="#3d975f" stroke="#3d975f" stroke-width="1.51"/><path d="M-45,326L-8,418L55,343Z" fill="#3b935c" stroke="#3b935c" stroke-width="1.51"/><path d="M-24,43L-8,99L50,58Z" fill="#4aac71" stroke="#4aac71" stroke-width="1.51"/><path d="M-47,-117L-31,-42L43,-109Z" fill="#53bb7e" stroke="#53bb7e" stroke-width="1.51"/><path d="M-42,174L6,267L45,194Z" fill="#43a067" stroke="#43a067" stroke-width="1.51"/><path d="M-8,418L-44,480L26,496Z" fill="#368b55" stroke="#368b55" stroke-width="1.51"/><path d="M26,496L4,564L35,533Z" fill="#32834f" stroke="#32834f" stroke-width="1.51"/><path d="M-31,-42L-24,43L24,-29Z" fill="#4fb477" stroke="#4fb477" stroke-width="1.51"/><path d="M-44,480L4,564L26,496Z" fill="#338652" stroke="#338652" stroke-width="1.51"/><path d="M-31,-42L-65,7L-24,43Z" fill="#4fb578" stroke="#4fb578" stroke-width="1.51"/><path d="M-45,326L-82,421L-8,418Z" fill="#3b935c" stroke="#3b935c" stroke-width="1.51"/><path d="M-44,480L-113,552L4,564Z" fill="#348752" stroke="#348752" stroke-width="1.51"/><path d="M-42,174L-114,259L6,267Z" fill="#43a168" stroke="#43a168" stroke-width="1.51"/><path d="M-114,259L-66,303L6,267Z" fill="#419e65" stroke="#419e65" stroke-width="1.51"/><path d="M-66,303L-45,326L6,267Z" fill="#409a62" stroke="#409a62" stroke-width="1.51"/><path d="M-24,43L-73,41L-8,99Z" fill="#4caf73" stroke="#4caf73" stroke-width="1.51"/><path d="M-73,41L-111,114L-8,99Z" fill="#4caf73" stroke="#4caf73" stroke-width="1.51"/><path d="M-111,114L-80,162L-8,99Z" fill="#4aac70" stroke="#4aac70" stroke-width="1.51"/><path d="M-80,162L-42,174L-8,99Z" fill="#47a86e" stroke="#47a86e" stroke-width="1.51"/><path d="M-82,421L-44,480L-8,418Z" fill="#398f58" stroke="#398f58" stroke-width="1.51"/><path d="M-80,162L-114,259L-42,174Z" fill="#46a66b" stroke="#46a66b" stroke-width="1.51"/><path d="M-47,-117L-99,-69L-31,-42Z" fill="#54bd7f" stroke="#54bd7f" stroke-width="1.51"/><path d="M-65,7L-73,41L-24,43Z" fill="#4eb377" stroke="#4eb377" stroke-width="1.51"/><path d="M-112,477L-113,552L-44,480Z" fill="#368c56" stroke="#368c56" stroke-width="1.51"/><path d="M-99,-69L-65,7L-31,-42Z" fill="#52ba7c" stroke="#52ba7c" stroke-width="1.51"/><path d="M-66,303L-82,421L-45,326Z" fill="#3e9860" stroke="#3e9860" stroke-width="1.51"/><path d="M-82,421L-112,477L-44,480Z" fill="#398f59" stroke="#398f59" stroke-width="1.51"/><path d="M-114,259L-82,421L-66,303Z" fill="#409b62" stroke="#409b62" stroke-width="1.51"/><path d="M-99,-69L-73,41L-65,7Z" fill="#51b87a" stroke="#51b87a" stroke-width="1.51"/><path d="M-99,-69L-111,114L-73,41Z" fill="#50b679" stroke="#50b679" stroke-width="1.51"/><path d="M-114,259L-112,477L-82,421Z" fill="#3d965f" stroke="#3d965f" stroke-width="1.51"/><path d="M-111,114L-114,259L-80,162Z" fill="#48a96e" stroke="#48a96e" stroke-width="1.51"/><path d="M-114,259L-113,552L-112,477Z" fill="#3b945d" stroke="#3b945d" stroke-width="1.51"/></svg>